<?xml version="1.0" encoding="utf-8"?>
<svg width="270.817" height="268" viewBox="0 0 270.817 268" fill="none" xmlns="http://www.w3.org/2000/svg">
  <defs>
    <filter color-interpolation-filters="sRGB" x="-254" y="-254" width="256" height="256" id="filter_1">
      <feFlood flood-opacity="0" result="BackgroundImageFix_1" />
      <feColorMatrix type="matrix" values="0 0 0 0 0 0 0 0 0 0 0 0 0 0 0 0 0 0 1 0" in="SourceAlpha" />
      <feOffset dx="0" dy="4" />
      <feGaussianBlur stdDeviation="2" />
      <feColorMatrix type="matrix" values="0 0 0 0 0 0 0 0 0 0 0 0 0 0 0 0 0 0 0.251 0" />
      <feBlend mode="normal" in2="BackgroundImageFix_1" result="Shadow_2" />
      <feBlend mode="normal" in="SourceGraphic" in2="Shadow_2" result="Shape_3" />
    </filter>
    <filter color-interpolation-filters="sRGB" x="-98.235" y="-83.916" width="100.235" height="85.916" id="filter_2">
      <feFlood flood-opacity="0" result="BackgroundImageFix_1" />
      <feColorMatrix type="matrix" values="0 0 0 0 0 0 0 0 0 0 0 0 0 0 0 0 0 0 1 0" in="SourceAlpha" />
      <feOffset dx="0" dy="4" />
      <feGaussianBlur stdDeviation="2" />
      <feColorMatrix type="matrix" values="0 0 0 0 0 0 0 0 0 0 0 0 0 0 0 0 0 0 0.251 0" />
      <feBlend mode="normal" in2="BackgroundImageFix_1" result="Shadow_2" />
      <feBlend mode="normal" in="SourceGraphic" in2="Shadow_2" result="Shape_3" />
    </filter>
  </defs>
  <g transform="translate(6 2)">
    <path d="M0 128C0 57.3075 57.3075 0 128 0C198.692 0 256 57.3075 256 128C256 198.692 198.692 256 128 256C57.3075 256 0 198.692 0 128Z" fill="#FFFFFF" fill-rule="evenodd" filter="url(#filter_1)" />
    <g transform="translate(53 63)">
      <path d="M118.528 130C131.053 130 140.625 119.275 140.625 106.786C140.625 106.786 140.625 37.1428 140.625 37.1428L9.375 37.1428C9.375 37.1428 9.375 106.786 9.375 106.786C9.375 119.275 18.9469 130 31.4719 130C31.4719 130 118.528 130 118.528 130ZM51.5625 55.7143C51.5625 55.7143 98.4375 55.7143 98.4375 55.7143C101.026 55.7143 103.125 57.793 103.125 60.3572C103.125 62.9213 101.026 65 98.4375 65C98.4375 65 51.5625 65 51.5625 65C48.9737 65 46.875 62.9213 46.875 60.3572C46.875 57.793 48.9737 55.7143 51.5625 55.7143C51.5625 55.7143 51.5625 55.7143 51.5625 55.7143ZM7.5 1.66042e-06C3.35786 1.10694e-06 5.58794e-07 3.32588 0 7.42857C0 7.42857 0 18.5714 0 18.5714C0.00143107 22.6767 3.36046 26.0014 7.50259 26C7.50259 26 142.503 26 142.503 26C146.644 25.9986 150 22.6731 150 18.5714C150 18.5714 150 7.42857 150 7.42857C150 3.32589 146.642 0 142.5 1.10694e-06C142.5 1.10694e-06 7.5 1.66042e-06 7.5 1.66042e-06Z" fill="#2D2D2D" />
    </g>
    <g transform="translate(121.875 100.5)">
      <path d="M22.6722 33.4119C22.6722 33.4119 44.1511 33.4119 44.1511 33.4119C45.1058 33.4119 45.9411 33.0539 46.657 32.3379C47.373 31.622 47.731 30.7867 47.731 29.832C47.731 28.8774 47.373 28.0421 46.657 27.3262C45.9411 26.6102 45.1058 26.2522 44.1512 26.2522C44.1512 26.2522 22.6722 26.2522 22.6722 26.2522C21.7176 26.2522 20.8823 26.6102 20.1663 27.3262C19.4503 28.0421 19.0924 28.8774 19.0924 29.832C19.0924 30.7867 19.4503 31.6219 20.1663 32.3379C20.8823 33.0539 21.7176 33.4119 22.6722 33.4119M22.6722 21.479C22.6722 21.479 44.1511 21.479 44.1511 21.479C45.1058 21.479 45.9411 21.121 46.657 20.4051C47.373 19.6891 47.731 18.8538 47.731 17.8992C47.731 16.9446 47.373 16.1093 46.657 15.3933C45.9411 14.6773 45.1058 14.3193 44.1512 14.3193C44.1512 14.3193 22.6722 14.3193 22.6722 14.3193C21.7176 14.3193 20.8823 14.6773 20.1663 15.3933C19.4503 16.1093 19.0924 16.9446 19.0924 17.8992C19.0924 18.8538 19.4503 19.6891 20.1663 20.4051C20.8823 21.121 21.7176 21.479 22.6722 21.479M71.5962 38.1848L71.5962 9.54615C71.5962 9.54615 76.3693 9.54615 76.3693 9.54615C78.9946 9.54615 81.2427 10.4817 83.1137 12.3527C84.9848 14.2238 85.9187 16.4703 85.9156 19.0924C85.9156 19.0924 95.4618 19.0924 95.4618 19.0924C96.8141 19.0924 97.9485 19.5506 98.865 20.467C99.7814 21.3834 100.238 22.5163 100.235 23.8655C100.232 25.2146 99.7735 26.3491 98.8602 27.2687C97.9469 28.1883 96.8141 28.6449 95.4618 28.6386C95.4618 28.6386 85.9156 28.6386 85.9156 28.6386C85.9156 31.2638 84.9816 33.5119 83.1137 35.383C81.2459 37.254 78.9977 38.188 76.3693 38.1848C76.3693 38.1848 71.5962 38.1848 71.5962 38.1848ZM47.731 59.6638L19.0924 59.6638C19.0924 59.6638 19.0924 47.731 19.0924 47.731C13.842 47.731 9.34733 45.8616 5.60839 42.1226C1.86946 38.3837 3.8147e-06 33.889 3.8147e-06 28.6386C3.8147e-06 28.6386 3.8147e-06 19.0924 3.8147e-06 19.0924C3.8147e-06 13.842 1.86946 9.34734 5.6084 5.6084C9.34733 1.86947 13.842 7.62939e-06 19.0924 0C19.0924 0 57.2772 0 57.2772 0C59.9025 0 62.1506 0.935532 64.0217 2.80659C65.8927 4.67764 66.8266 6.92419 66.8235 9.54621C66.8235 9.54621 66.8234 38.1848 66.8234 38.1848C66.8235 40.81 65.8895 43.0582 64.0217 44.9292C62.1538 46.8003 59.9056 47.7342 57.2772 47.731C57.2772 47.731 47.731 47.731 47.731 47.731L47.731 59.6638ZM16.7059 85.916C14.7171 85.916 13.0274 85.2207 11.6368 83.8302C10.2463 82.4396 9.54939 80.7483 9.54621 78.7564C9.54621 78.7564 9.54621 71.5967 9.54621 71.5967C9.54621 69.6079 10.2431 67.9182 11.6368 66.5277C13.0306 65.1371 14.7203 64.4402 16.7059 64.437C16.7059 64.437 50.1176 64.437 50.1176 64.437C52.1064 64.437 53.7976 65.1339 55.1914 66.5277C56.5851 67.9214 57.2804 69.6111 57.2772 71.5967C57.2772 71.5967 57.2772 78.7564 57.2772 78.7564C57.2772 80.7451 56.582 82.4364 55.1914 83.8302C53.8008 85.2239 52.1096 85.9192 50.1176 85.916C50.1176 85.916 16.7059 85.916 16.7059 85.916Z" fill="none" stroke-width="14" stroke="#FFFFFF" stroke-linecap="round" stroke-linejoin="round" transform="matrix(0.707 -0.707 0.707 0.707 0 70.877)" />
      <path d="M22.6722 33.4119C22.6722 33.4119 44.1511 33.4119 44.1511 33.4119C45.1058 33.4119 45.9411 33.0539 46.657 32.3379C47.373 31.622 47.731 30.7867 47.731 29.832C47.731 28.8774 47.373 28.0421 46.657 27.3262C45.9411 26.6102 45.1058 26.2522 44.1512 26.2522C44.1512 26.2522 22.6722 26.2522 22.6722 26.2522C21.7176 26.2522 20.8823 26.6102 20.1663 27.3262C19.4503 28.0421 19.0924 28.8774 19.0924 29.832C19.0924 30.7867 19.4503 31.6219 20.1663 32.3379C20.8823 33.0539 21.7176 33.4119 22.6722 33.4119C22.6722 33.4119 22.6722 33.4119 22.6722 33.4119ZM22.6722 21.479C22.6722 21.479 44.1511 21.479 44.1511 21.479C45.1058 21.479 45.9411 21.121 46.657 20.4051C47.373 19.6891 47.731 18.8538 47.731 17.8992C47.731 16.9446 47.373 16.1093 46.657 15.3933C45.9411 14.6773 45.1058 14.3193 44.1512 14.3193C44.1512 14.3193 22.6722 14.3193 22.6722 14.3193C21.7176 14.3193 20.8823 14.6773 20.1663 15.3933C19.4503 16.1093 19.0924 16.9446 19.0924 17.8992C19.0924 18.8538 19.4503 19.6891 20.1663 20.4051C20.8823 21.121 21.7176 21.479 22.6722 21.479C22.6722 21.479 22.6722 21.479 22.6722 21.479ZM71.5962 38.1848L71.5962 9.54615C71.5962 9.54615 76.3693 9.54615 76.3693 9.54615C78.9946 9.54615 81.2427 10.4817 83.1137 12.3527C84.9848 14.2238 85.9187 16.4703 85.9156 19.0924C85.9156 19.0924 95.4618 19.0924 95.4618 19.0924C96.8141 19.0924 97.9485 19.5506 98.865 20.467C99.7814 21.3834 100.238 22.5163 100.235 23.8655C100.232 25.2146 99.7735 26.3491 98.8602 27.2687C97.9469 28.1883 96.8141 28.6449 95.4618 28.6386C95.4618 28.6386 85.9156 28.6386 85.9156 28.6386C85.9156 31.2638 84.9816 33.5119 83.1137 35.383C81.2459 37.254 78.9977 38.188 76.3693 38.1848C76.3693 38.1848 71.5962 38.1848 71.5962 38.1848ZM47.731 59.6638L19.0924 59.6638C19.0924 59.6638 19.0924 47.731 19.0924 47.731C13.842 47.731 9.34733 45.8616 5.60839 42.1226C1.86946 38.3837 3.8147e-06 33.889 3.8147e-06 28.6386C3.8147e-06 28.6386 3.8147e-06 19.0924 3.8147e-06 19.0924C3.8147e-06 13.842 1.86946 9.34734 5.6084 5.6084C9.34733 1.86947 13.842 7.62939e-06 19.0924 0C19.0924 0 57.2772 0 57.2772 0C59.9025 0 62.1506 0.935532 64.0217 2.80659C65.8927 4.67764 66.8266 6.92419 66.8235 9.54621C66.8235 9.54621 66.8234 38.1848 66.8234 38.1848C66.8235 40.81 65.8895 43.0582 64.0217 44.9292C62.1538 46.8003 59.9056 47.7342 57.2772 47.731C57.2772 47.731 47.731 47.731 47.731 47.731L47.731 59.6638ZM16.7059 85.916C14.7171 85.916 13.0274 85.2207 11.6368 83.8302C10.2463 82.4396 9.54939 80.7483 9.54621 78.7564C9.54621 78.7564 9.54621 71.5967 9.54621 71.5967C9.54621 69.6079 10.2431 67.9182 11.6368 66.5277C13.0306 65.1371 14.7203 64.4402 16.7059 64.437C16.7059 64.437 50.1176 64.437 50.1176 64.437C52.1064 64.437 53.7976 65.1339 55.1914 66.5277C56.5851 67.9214 57.2804 69.6111 57.2772 71.5967C57.2772 71.5967 57.2772 78.7564 57.2772 78.7564C57.2772 80.7451 56.582 82.4364 55.1914 83.8302C53.8008 85.2239 52.1096 85.9192 50.1176 85.916C50.1176 85.916 16.7059 85.916 16.7059 85.916Z" fill="#2D2D2D" filter="url(#filter_2)" transform="matrix(0.707 -0.707 0.707 0.707 0 70.877)" />
    </g>
  </g>
</svg>